#!OML:ASF H:\ColoradoDance\Project 1\Capture day 1\Session 8\male.ASF
:FULLY-SPECIFIED
:DEGREES
1
upperback -2.707670 0.761542 0.731485
rfoot -15.356000 -3.071770
lradius 39.584999
lthumb 4.284860 55.999001
rradius 40.042099
lwrist -8.226860
rhand -34.713501 0.697424
rhumerus -37.179401 -1.868890 -80.735703
lowerneck -5.096500 0.469216 5.506380
lhand -22.128300 26.062401
ltibia 64.756302
head 3.246920 0.304946 -3.357320
rwrist 5.195870
lfingers 7.125020
rtoes 4.077430
lowerback 0.779464 0.464541 3.696420
rfingers 7.125020
lclavicle -0.000000 0.000000
upperneck 7.932970 0.929761 -8.216650
rfemur -14.889800 3.935310 26.602100
thorax -3.186880 0.307901 -1.345240
rclavicle -0.000000 0.000000
rtibia 30.507000
lfoot 4.982050 -2.328630
lhumerus -40.256802 -1.176690 79.295403
rthumb -7.868260 -29.136200
root 5.634070 19.800301 -33.791901 -13.071900 85.046402 -18.096201
ltoes -11.044700
lfemur -35.079201 9.157300 -16.613800
2
upperback -2.531410 1.280820 0.642938
rfoot -20.432800 -1.321670
lradius 34.403999
lthumb 5.209700 56.147999
rradius 35.118801
lwrist -10.915500
rhand -34.413300 1.165550
rhumerus -41.344200 -5.810680 -82.944298
lowerneck -4.251770 2.874160 7.872110
lhand -21.170500 26.232000
ltibia 33.969398
head 2.763320 1.848840 -3.500080
rwrist 6.016820
lfingers 7.125020
rtoes 2.265080
lowerback -0.166996 0.894285 3.795660
rfingers 7.125020
lclavicle 0.000000 -0.000000
upperneck 5.955240 3.864300 -7.827090
rfemur -8.714360 8.294990 28.357201
thorax -2.440890 0.577404 -1.489950
rclavicle 0.000000 -0.000000
rtibia 27.888800
lfoot -1.190430 10.465300
lhumerus -43.285599 -0.101293 77.115898
rthumb -7.578480 -28.678699
root 7.562980 19.591801 -33.615200 -6.787490 75.469200 -13.607800
ltoes -4.689340
lfemur -39.327999 4.821880 -13.151100
3
upperback -2.677740 1.788320 1.315840
rfoot -23.688200 -5.059760
lradius 27.932501
lthumb 4.228120 53.804401
rradius 18.423401
lwrist -14.611200
rhand -37.178902 -4.619540
rhumerus -54.182899 -16.511299 -70.644600
lowerneck -4.290150 3.836050 8.652520
lhand -22.187099 23.866600
ltibia 23.988300
head 2.734020 2.457330 -3.383010
rwrist 16.532301
lfingers 7.125020
rtoes -5.445370
lowerback -0.066012 1.226500 5.676020
rfingers 7.125020
lclavicle -0.000000 -0.000000
upperneck 5.507410 5.027290 -7.202730
rfemur 1.744180 15.103700 32.819401
thorax -2.596530 0.797247 -1.859560
rclavicle -0.000000 -0.000000
rtibia 24.167900
lfoot -18.278900 21.743799
lhumerus -45.422901 4.664790 73.680603
rthumb -10.247200 -34.349899
root 10.117900 19.128799 -33.517200 -15.274000 70.574501 -23.195299
ltoes -5.216900
lfemur -38.249699 -2.767360 -0.669258
4
upperback -3.119660 1.950430 -0.680148
rfoot -10.890500 4.163730
lradius 23.957001
lthumb 3.458490 53.510101
rradius 16.823799
lwrist -19.999800
rhand -23.084400 -4.739820
rhumerus -64.407402 -19.128901 -57.517502
lowerneck -5.702320 3.976350 8.953340
lhand -22.984100 23.558399
ltibia 26.575001
head 3.277100 2.488860 -3.668850
rwrist 21.686100
lfingers 7.125020
rtoes -29.703400
lowerback -0.943370 1.447150 0.274175
rfingers 7.125020
lclavicle 0.000000 0.000000
upperneck 6.396560 5.192230 -8.097900
rfemur 11.114700 12.769000 20.563601
thorax -2.638370 0.972100 -0.878303
rclavicle 0.000000 0.000000
rtibia 23.937000
lfoot -7.500810 13.571800
lhumerus -46.460400 8.057380 71.292900
rthumb 3.361600 -34.693100
root 13.723500 19.274000 -33.848701 4.488830 70.818398 -2.285150
ltoes -2.190530
lfemur -29.957899 -3.987560 -13.235200
5
upperback -3.318230 0.497525 -0.206603
rfoot 15.516000 -6.809910
lradius 26.844801
lthumb 0.857625 57.102100
rradius 22.446600
lwrist -17.060900
rhand -35.558601 76.613197
rhumerus -58.500301 -24.508101 -52.452000
lowerneck -4.794870 5.505530 9.988800
lhand -25.677099 27.124100
ltibia 24.676600
head 3.964410 3.639290 -4.194070
rwrist 52.112701
lfingers 7.125020
rtoes 25.568800
lowerback 0.796184 0.354582 0.151764
rfingers 7.125020
lclavicle -0.000000 -0.000000
upperneck 8.176620 7.530980 -9.690920
rfemur -5.159570 -1.079580 12.145900
thorax -3.854820 0.250916 -0.318976
rclavicle -0.000000 -0.000000
rtibia 56.918098
lfoot -8.941560 10.387400
lhumerus -41.962299 5.875290 72.080002
rthumb -8.683830 46.811901
root 16.886101 19.645300 -34.223701 4.911030 69.203003 0.527548
ltoes 4.181610
lfemur -16.597099 -1.970350 -20.650600
6
upperback -3.067570 -1.373650 -0.336065
rfoot -16.923901 -12.530300
lradius 42.182999
lthumb -0.976888 56.326698
rradius 49.701698
lwrist -6.649840
rhand -31.900600 7.747470
rhumerus -48.340599 -4.405610 -81.577797
lowerneck -4.445650 5.384650 9.253420
lhand -27.576500 26.349199
ltibia 28.732000
head 4.119050 3.634780 -4.185390
rwrist 2.616130
lfingers 7.125020
rtoes -2.391550
lowerback 0.974135 -1.006620 -1.448290
rfingers 7.125020
lclavicle 0.000000 0.000000
upperneck 8.925880 7.568570 -10.035400
rfemur -25.516100 -1.165260 13.443600
thorax -3.673990 -0.637207 0.521430
rclavicle 0.000000 0.000000
rtibia 60.390800
lfoot -16.400900 2.819950
lhumerus -35.670101 0.924159 72.073997
rthumb -5.152710 -382.170013
root 19.204901 19.351200 -34.091599 10.078000 74.238701 6.845680
ltoes 3.024760
lfemur -10.350300 0.484415 -24.632700
7
upperback -3.233810 -2.297140 -0.754232
rfoot -23.636200 -15.504000
lradius 46.581299
lthumb 2.777950 53.975899
rradius 50.967300
lwrist -3.902600
rhand -31.714899 7.829150
rhumerus -48.655998 -0.066101 -82.935997
lowerneck -5.469720 3.208590 6.049450
lhand -23.688801 24.014299
ltibia 24.427299
head 4.153850 2.182950 -3.470910
rwrist 6.378120
lfingers 7.125020
rtoes -17.434601
lowerback 0.969512 -1.666430 -2.758980
rfingers 7.125020
lclavicle 0.000000 0.000000
upperneck 9.729440 4.790330 -8.925930
rfemur -34.495899 15.025400 2.677660
thorax -3.795310 -1.056800 0.862225
rclavicle 0.000000 0.000000
rtibia 33.528599
lfoot -18.994801 -4.578500
lhumerus -35.754002 -4.589760 76.043602
rthumb -4.973440 -382.092010
root 21.365499 19.150600 -33.531200 71.106598 85.518997 66.747002
ltoes 2.174160
lfemur -2.684070 -5.249800 -25.316200
8
upperback -3.377370 -1.330110 -0.816969
rfoot -15.381200 -2.911210
lradius 30.440201
lthumb -2.472880 61.596901
rradius 45.101601
lwrist -11.138100
rhand -35.141998 1.665250
rhumerus -45.390202 6.771050 -87.422798
lowerneck -6.255840 0.652602 3.941760
lhand -29.125500 31.631399
ltibia 20.433100
head 3.649240 0.458750 -3.235480
rwrist 5.242230
lfingers 7.125020
rtoes -16.316700
lowerback 0.928844 -0.977658 -1.449230
rfingers 7.125020
lclavicle 0.000000 0.000000
upperneck 8.530900 1.414420 -8.724950
rfemur -32.485600 21.020700 -1.413930
thorax -3.982060 -0.609629 0.026840
rclavicle 0.000000 0.000000
rtibia 29.254601
lfoot -17.882099 -10.114500
lhumerus -42.596401 8.752950 65.858101
rthumb -8.281830 -388.152008
root 23.884501 18.983601 -32.418900 173.576996 73.014297 167.134003
ltoes -4.101070
lfemur 2.944390 -17.005501 -18.692499
